<svg xmlns="http://www.w3.org/2000/svg" viewBox="0 0 200 200">
  <circle cx="100" cy="100" r="95" fill="#FFFFFF" stroke="#D1D1D1" stroke-width="1"/>
  <circle cx="100" cy="100" r="80" fill="#FFFFFF" stroke="#EFEFEF" stroke-width="1"/>
  
  <!-- SEAT Logo -->
  <path d="M50,80 L150,80 C155,80 160,85 160,90 L160,110 C160,115 155,120 150,120 L50,120 C45,120 40,115 40,110 L40,90 C40,85 45,80 50,80 Z" fill="#D70F14"/>
  
  <!-- SEAT Text -->
  <path d="M60,95 H75 C78,95 80,97 80,100 C80,103 78,105 75,105 H60 V95 Z" fill="#FFFFFF"/>
  <path d="M60,105 H75 V110 H60 V105 Z" fill="#FFFFFF"/>
  
  <path d="M85,95 H100 C103,95 105,97 105,100 C105,103 103,105 100,105 H85 V95 Z" fill="#FFFFFF"/>
  <path d="M85,105 H100 V110 H85 V105 Z" fill="#FFFFFF"/>
  
  <path d="M110,95 H125 L125,110 H110 V95 Z" fill="#FFFFFF"/>
  <path d="M110,100 H122 V105 H110 V100 Z" fill="#FFFFFF"/>
  
  <path d="M130,95 H140 L145,110 H135 L130,95 Z" fill="#FFFFFF"/>
  <path d="M130,100 H137 L137,105 H130 V100 Z" fill="#FFFFFF"/>
</svg>