<svg xmlns="http://www.w3.org/2000/svg" viewBox="0 0 32 32" width="32" height="32">
  <defs>
    <style>
      .gear { fill: #4A5568; stroke: none; }
    </style>
  </defs>
  <circle class="gear" cx="16" cy="16" r="12"/>
  <circle fill="#FFFFFF" cx="16" cy="16" r="4"/>
  <rect class="gear" x="14" y="2" width="4" height="6" rx="1"/>
  <rect class="gear" x="14" y="24" width="4" height="6" rx="1"/>
  <rect class="gear" x="2" y="14" width="6" height="4" rx="1"/>
  <rect class="gear" x="24" y="14" width="6" height="4" rx="1"/>
  <rect class="gear" x="22.5" y="5.5" width="4" height="6" rx="1" transform="rotate(45 24.5 8.5)"/>
  <rect class="gear" x="5.5" y="20.5" width="4" height="6" rx="1" transform="rotate(45 7.5 23.5)"/>
  <rect class="gear" x="20.5" y="22.5" width="6" height="4" rx="1" transform="rotate(45 23.5 24.5)"/>
  <rect class="gear" x="5.5" y="5.5" width="6" height="4" rx="1" transform="rotate(45 8.5 7.5)"/>
</svg>